<svg width="361" height="333" viewBox="0 0 361 333" fill="none" xmlns="http://www.w3.org/2000/svg">
<path d="M199.979 100.616L225.951 124.574C276.156 170.885 276.156 245.968 225.951 292.278L219.459 298.267C169.254 344.578 87.8572 344.578 37.6531 298.267C-12.551 251.958 -12.551 176.874 37.6531 130.564L63.6254 154.522C27.7653 187.6 27.7653 241.231 63.6254 274.31C99.4855 307.388 157.625 307.388 193.487 274.31L199.979 268.321C235.839 235.241 235.839 181.61 199.979 148.532L174.007 124.574L199.979 100.616ZM323.347 202.437L297.375 178.48C333.234 145.4 333.234 91.7691 297.375 58.6904C261.515 25.6118 203.375 25.6118 167.515 58.6904L161.021 64.6798C125.161 97.7585 125.161 151.39 161.021 184.468L186.993 208.426L161.021 232.383L135.049 208.426C84.8446 162.117 84.8446 87.0323 135.049 40.7222L141.542 34.7326C191.746 -11.5775 273.144 -11.5775 323.347 34.7326C373.551 81.0428 373.551 156.126 323.347 202.437Z" fill="#F8FAEC"/>
</svg>
