<svg width="259" height="294" viewBox="0 0 259 294" fill="none" xmlns="http://www.w3.org/2000/svg">
<path d="M70.1141 179.428L37.3218 212.221L81.0446 255.944L255.935 81.0522L212.213 37.3294L179.421 70.1215L201.282 91.983L179.421 113.844L157.56 91.983L135.699 113.844L157.56 135.706L135.699 157.567L113.837 135.706L91.9754 157.567L113.837 179.428L91.9754 201.289L70.1141 179.428ZM223.143 4.53733L288.728 70.1215C294.765 76.1584 294.765 85.946 288.728 91.983L91.9754 288.735C85.9384 294.772 76.1508 294.772 70.1141 288.735L4.52975 223.152C-1.50703 217.114 -1.50703 207.327 4.52975 201.289L201.282 4.53733C207.319 -1.49946 217.107 -1.49946 223.143 4.53733ZM179.421 245.005L201.282 223.144L235.947 257.809H257.809V235.948L223.143 201.283L245.005 179.42L285.748 220.164V285.76H220.175L179.421 245.005ZM48.2504 113.835L4.52759 70.1117C-1.5092 64.0749 -1.5092 54.2872 4.52759 48.2504L48.2504 4.52759C54.2872 -1.5092 64.0749 -1.5092 70.1117 4.52759L113.835 48.2504L91.9732 70.1117L59.1811 37.3197L37.3197 59.1811L70.1117 91.9732L48.2504 113.835Z" fill="#2F2F2F"/>
</svg>
